<?xml version="1.0" encoding="UTF-8" standalone="no"?>
<!DOCTYPE svg PUBLIC "-//W3C//DTD SVG 1.1//EN"
 "http://www.w3.org/Graphics/SVG/1.1/DTD/svg11.dtd">
<!-- Generated by graphviz version 2.43.0 (0)
 -->
<!-- Title: %3 Pages: 1 -->
<svg width="498pt" height="332pt"
 viewBox="0.00 0.00 498.22 332.00" xmlns="http://www.w3.org/2000/svg" xmlns:xlink="http://www.w3.org/1999/xlink">
<g id="graph0" class="graph" transform="scale(1 1) rotate(0) translate(4 328)">
<title>%3</title>
<polygon fill="white" stroke="transparent" points="-4,4 -4,-328 494.22,-328 494.22,4 -4,4"/>
<!-- data/prepared&#45;train.csv -->
<g id="node1" class="node">
<title>data/prepared&#45;train.csv</title>
<ellipse fill="none" stroke="black" cx="369.69" cy="-234" rx="120.48" ry="18"/>
<text text-anchor="middle" x="369.69" y="-230.3" font-family="Times,serif" font-size="14.00">data/prepared&#45;train.csv</text>
</g>
<!-- data/feature&#45;train.npz -->
<g id="node3" class="node">
<title>data/feature&#45;train.npz</title>
<ellipse fill="none" stroke="black" cx="362.69" cy="-162" rx="112.38" ry="18"/>
<text text-anchor="middle" x="362.69" y="-158.3" font-family="Times,serif" font-size="14.00">data/feature&#45;train.npz</text>
</g>
<!-- data/prepared&#45;train.csv&#45;&gt;data/feature&#45;train.npz -->
<g id="edge1" class="edge">
<title>data/prepared&#45;train.csv&#45;&gt;data/feature&#45;train.npz</title>
<path fill="none" stroke="black" d="M367.96,-215.7C367.19,-207.98 366.26,-198.71 365.4,-190.11"/>
<polygon fill="black" stroke="black" points="368.88,-189.71 364.4,-180.1 361.91,-190.4 368.88,-189.71"/>
</g>
<!-- data/feature&#45;test.npz -->
<g id="node4" class="node">
<title>data/feature&#45;test.npz</title>
<ellipse fill="none" stroke="black" cx="123.69" cy="-162" rx="108.58" ry="18"/>
<text text-anchor="middle" x="123.69" y="-158.3" font-family="Times,serif" font-size="14.00">data/feature&#45;test.npz</text>
</g>
<!-- data/prepared&#45;train.csv&#45;&gt;data/feature&#45;test.npz -->
<g id="edge2" class="edge">
<title>data/prepared&#45;train.csv&#45;&gt;data/feature&#45;test.npz</title>
<path fill="none" stroke="black" d="M316.31,-217.81C277.93,-206.89 226.07,-192.13 185.82,-180.68"/>
<polygon fill="black" stroke="black" points="186.69,-177.29 176.12,-177.92 184.78,-184.02 186.69,-177.29"/>
</g>
<!-- data/model.pkl -->
<g id="node5" class="node">
<title>data/model.pkl</title>
<ellipse fill="none" stroke="black" cx="362.69" cy="-90" rx="79.09" ry="18"/>
<text text-anchor="middle" x="362.69" y="-86.3" font-family="Times,serif" font-size="14.00">data/model.pkl</text>
</g>
<!-- data/prepared&#45;train.csv&#45;&gt;data/model.pkl -->
<g id="edge3" class="edge">
<title>data/prepared&#45;train.csv&#45;&gt;data/model.pkl</title>
<path fill="none" stroke="black" d="M431.72,-218.56C451.79,-210.63 471.89,-198.49 483.69,-180 492.29,-166.51 492.44,-157.39 483.69,-144 471.61,-125.52 451.51,-113.45 431.12,-105.57"/>
<polygon fill="black" stroke="black" points="432.04,-102.18 421.45,-102.14 429.7,-108.78 432.04,-102.18"/>
</g>
<!-- data/prepared&#45;test.csv -->
<g id="node2" class="node">
<title>data/prepared&#45;test.csv</title>
<ellipse fill="none" stroke="black" cx="115.69" cy="-234" rx="115.88" ry="18"/>
<text text-anchor="middle" x="115.69" y="-230.3" font-family="Times,serif" font-size="14.00">data/prepared&#45;test.csv</text>
</g>
<!-- data/prepared&#45;test.csv&#45;&gt;data/feature&#45;train.npz -->
<g id="edge4" class="edge">
<title>data/prepared&#45;test.csv&#45;&gt;data/feature&#45;train.npz</title>
<path fill="none" stroke="black" d="M168.68,-217.98C207.18,-207.07 259.43,-192.26 300,-180.76"/>
<polygon fill="black" stroke="black" points="301.12,-184.09 309.79,-177.99 299.21,-177.35 301.12,-184.09"/>
</g>
<!-- data/prepared&#45;test.csv&#45;&gt;data/feature&#45;test.npz -->
<g id="edge5" class="edge">
<title>data/prepared&#45;test.csv&#45;&gt;data/feature&#45;test.npz</title>
<path fill="none" stroke="black" d="M117.67,-215.7C118.55,-207.98 119.61,-198.71 120.59,-190.11"/>
<polygon fill="black" stroke="black" points="124.08,-190.44 121.73,-180.1 117.12,-189.64 124.08,-190.44"/>
</g>
<!-- data/metrics.json -->
<g id="node6" class="node">
<title>data/metrics.json</title>
<ellipse fill="none" stroke="black" cx="123.69" cy="-18" rx="90.98" ry="18"/>
<text text-anchor="middle" x="123.69" y="-14.3" font-family="Times,serif" font-size="14.00">data/metrics.json</text>
</g>
<!-- data/prepared&#45;test.csv&#45;&gt;data/metrics.json -->
<g id="edge6" class="edge">
<title>data/prepared&#45;test.csv&#45;&gt;data/metrics.json</title>
<path fill="none" stroke="black" d="M56.65,-218.41C36.99,-210.44 17.19,-198.31 5.69,-180 -2.82,-166.45 -0.22,-158.87 5.69,-144 22.84,-100.84 62.75,-63.95 91.41,-41.67"/>
<polygon fill="black" stroke="black" points="93.68,-44.34 99.54,-35.51 89.45,-38.76 93.68,-44.34"/>
</g>
<!-- data/feature&#45;train.npz&#45;&gt;data/model.pkl -->
<g id="edge7" class="edge">
<title>data/feature&#45;train.npz&#45;&gt;data/model.pkl</title>
<path fill="none" stroke="black" d="M362.69,-143.7C362.69,-135.98 362.69,-126.71 362.69,-118.11"/>
<polygon fill="black" stroke="black" points="366.19,-118.1 362.69,-108.1 359.19,-118.1 366.19,-118.1"/>
</g>
<!-- data/feature&#45;test.npz&#45;&gt;data/metrics.json -->
<g id="edge8" class="edge">
<title>data/feature&#45;test.npz&#45;&gt;data/metrics.json</title>
<path fill="none" stroke="black" d="M123.69,-143.87C123.69,-119.67 123.69,-75.21 123.69,-46.39"/>
<polygon fill="black" stroke="black" points="127.19,-46.19 123.69,-36.19 120.19,-46.19 127.19,-46.19"/>
</g>
<!-- data/model.pkl&#45;&gt;data/metrics.json -->
<g id="edge9" class="edge">
<title>data/model.pkl&#45;&gt;data/metrics.json</title>
<path fill="none" stroke="black" d="M316.04,-75.34C277.68,-64.1 223.13,-48.13 181.91,-36.05"/>
<polygon fill="black" stroke="black" points="182.85,-32.68 172.27,-33.23 180.89,-39.4 182.85,-32.68"/>
</g>
<!-- data/raw&#45;train.csv -->
<g id="node7" class="node">
<title>data/raw&#45;train.csv</title>
<ellipse fill="none" stroke="black" cx="369.69" cy="-306" rx="94.78" ry="18"/>
<text text-anchor="middle" x="369.69" y="-302.3" font-family="Times,serif" font-size="14.00">data/raw&#45;train.csv</text>
</g>
<!-- data/raw&#45;train.csv&#45;&gt;data/prepared&#45;train.csv -->
<g id="edge10" class="edge">
<title>data/raw&#45;train.csv&#45;&gt;data/prepared&#45;train.csv</title>
<path fill="none" stroke="black" d="M369.69,-287.7C369.69,-279.98 369.69,-270.71 369.69,-262.11"/>
<polygon fill="black" stroke="black" points="373.19,-262.1 369.69,-252.1 366.19,-262.1 373.19,-262.1"/>
</g>
<!-- data/raw&#45;test.csv -->
<g id="node8" class="node">
<title>data/raw&#45;test.csv</title>
<ellipse fill="none" stroke="black" cx="115.69" cy="-306" rx="90.98" ry="18"/>
<text text-anchor="middle" x="115.69" y="-302.3" font-family="Times,serif" font-size="14.00">data/raw&#45;test.csv</text>
</g>
<!-- data/raw&#45;test.csv&#45;&gt;data/prepared&#45;test.csv -->
<g id="edge11" class="edge">
<title>data/raw&#45;test.csv&#45;&gt;data/prepared&#45;test.csv</title>
<path fill="none" stroke="black" d="M115.69,-287.7C115.69,-279.98 115.69,-270.71 115.69,-262.11"/>
<polygon fill="black" stroke="black" points="119.19,-262.1 115.69,-252.1 112.19,-262.1 119.19,-262.1"/>
</g>
</g>
</svg>
