<?xml version="1.0" encoding="UTF-8" standalone="no"?>
<!DOCTYPE svg PUBLIC "-//W3C//DTD SVG 1.1//EN"
 "http://www.w3.org/Graphics/SVG/1.1/DTD/svg11.dtd">
<!-- Generated by graphviz version 2.43.0 (0)
 -->
<!-- Title: %3 Pages: 1 -->
<svg width="468pt" height="332pt"
 viewBox="0.00 0.00 467.98 332.00" xmlns="http://www.w3.org/2000/svg" xmlns:xlink="http://www.w3.org/1999/xlink">
<g id="graph0" class="graph" transform="scale(1 1) rotate(0) translate(4 328)">
<title>%3</title>
<polygon fill="white" stroke="transparent" points="-4,4 -4,-328 463.98,-328 463.98,4 -4,4"/>
<!-- prepare@train -->
<g id="node1" class="node">
<title>prepare@train</title>
<ellipse fill="none" stroke="black" cx="313.54" cy="-234" rx="79.09" ry="18"/>
<text text-anchor="middle" x="313.54" y="-230.3" font-family="Times,serif" font-size="14.00">prepare@train</text>
</g>
<!-- featurize -->
<g id="node3" class="node">
<title>featurize</title>
<ellipse fill="none" stroke="black" cx="230.54" cy="-162" rx="51.99" ry="18"/>
<text text-anchor="middle" x="230.54" y="-158.3" font-family="Times,serif" font-size="14.00">featurize</text>
</g>
<!-- prepare@train&#45;&gt;featurize -->
<g id="edge1" class="edge">
<title>prepare@train&#45;&gt;featurize</title>
<path fill="none" stroke="black" d="M293.87,-216.41C282.96,-207.21 269.25,-195.64 257.37,-185.63"/>
<polygon fill="black" stroke="black" points="259.4,-182.76 249.5,-178.99 254.89,-188.11 259.4,-182.76"/>
</g>
<!-- fit_model -->
<g id="node4" class="node">
<title>fit_model</title>
<ellipse fill="none" stroke="black" cx="288.54" cy="-90" rx="53.09" ry="18"/>
<text text-anchor="middle" x="288.54" y="-86.3" font-family="Times,serif" font-size="14.00">fit_model</text>
</g>
<!-- prepare@train&#45;&gt;fit_model -->
<g id="edge2" class="edge">
<title>prepare@train&#45;&gt;fit_model</title>
<path fill="none" stroke="black" d="M310.52,-215.87C306.26,-191.67 298.44,-147.21 293.36,-118.39"/>
<polygon fill="black" stroke="black" points="296.75,-117.43 291.57,-108.19 289.85,-118.64 296.75,-117.43"/>
</g>
<!-- prepare@test -->
<g id="node2" class="node">
<title>prepare@test</title>
<ellipse fill="none" stroke="black" cx="141.54" cy="-234" rx="74.99" ry="18"/>
<text text-anchor="middle" x="141.54" y="-230.3" font-family="Times,serif" font-size="14.00">prepare@test</text>
</g>
<!-- prepare@test&#45;&gt;featurize -->
<g id="edge3" class="edge">
<title>prepare@test&#45;&gt;featurize</title>
<path fill="none" stroke="black" d="M162.63,-216.41C174.52,-207.06 189.53,-195.25 202.41,-185.12"/>
<polygon fill="black" stroke="black" points="204.82,-187.68 210.52,-178.75 200.49,-182.18 204.82,-187.68"/>
</g>
<!-- evaluate_model -->
<g id="node5" class="node">
<title>evaluate_model</title>
<ellipse fill="none" stroke="black" cx="207.54" cy="-18" rx="83.39" ry="18"/>
<text text-anchor="middle" x="207.54" y="-14.3" font-family="Times,serif" font-size="14.00">evaluate_model</text>
</g>
<!-- prepare@test&#45;&gt;evaluate_model -->
<g id="edge4" class="edge">
<title>prepare@test&#45;&gt;evaluate_model</title>
<path fill="none" stroke="black" d="M146.83,-215.85C158.29,-178.68 185.51,-90.44 199.27,-45.82"/>
<polygon fill="black" stroke="black" points="202.62,-46.82 202.23,-36.23 195.93,-44.76 202.62,-46.82"/>
</g>
<!-- featurize&#45;&gt;fit_model -->
<g id="edge5" class="edge">
<title>featurize&#45;&gt;fit_model</title>
<path fill="none" stroke="black" d="M244.29,-144.41C251.51,-135.69 260.5,-124.85 268.48,-115.21"/>
<polygon fill="black" stroke="black" points="271.21,-117.4 274.89,-107.47 265.82,-112.94 271.21,-117.4"/>
</g>
<!-- featurize&#45;&gt;evaluate_model -->
<g id="edge6" class="edge">
<title>featurize&#45;&gt;evaluate_model</title>
<path fill="none" stroke="black" d="M227.77,-143.87C223.85,-119.67 216.64,-75.21 211.98,-46.39"/>
<polygon fill="black" stroke="black" points="215.38,-45.5 210.32,-36.19 208.47,-46.62 215.38,-45.5"/>
</g>
<!-- fit_model&#45;&gt;evaluate_model -->
<g id="edge7" class="edge">
<title>fit_model&#45;&gt;evaluate_model</title>
<path fill="none" stroke="black" d="M269.75,-72.76C259.27,-63.71 246.04,-52.27 234.47,-42.28"/>
<polygon fill="black" stroke="black" points="236.64,-39.52 226.79,-35.63 232.07,-44.82 236.64,-39.52"/>
</g>
<!-- data/raw&#45;train.csv.dvc -->
<g id="node6" class="node">
<title>data/raw&#45;train.csv.dvc</title>
<ellipse fill="none" stroke="black" cx="347.54" cy="-306" rx="112.38" ry="18"/>
<text text-anchor="middle" x="347.54" y="-302.3" font-family="Times,serif" font-size="14.00">data/raw&#45;train.csv.dvc</text>
</g>
<!-- data/raw&#45;train.csv.dvc&#45;&gt;prepare@train -->
<g id="edge8" class="edge">
<title>data/raw&#45;train.csv.dvc&#45;&gt;prepare@train</title>
<path fill="none" stroke="black" d="M339.14,-287.7C335.27,-279.73 330.59,-270.1 326.3,-261.26"/>
<polygon fill="black" stroke="black" points="329.37,-259.57 321.85,-252.1 323.07,-262.63 329.37,-259.57"/>
</g>
<!-- data/raw&#45;test.csv.dvc -->
<g id="node7" class="node">
<title>data/raw&#45;test.csv.dvc</title>
<ellipse fill="none" stroke="black" cx="108.54" cy="-306" rx="108.58" ry="18"/>
<text text-anchor="middle" x="108.54" y="-302.3" font-family="Times,serif" font-size="14.00">data/raw&#45;test.csv.dvc</text>
</g>
<!-- data/raw&#45;test.csv.dvc&#45;&gt;prepare@test -->
<g id="edge9" class="edge">
<title>data/raw&#45;test.csv.dvc&#45;&gt;prepare@test</title>
<path fill="none" stroke="black" d="M116.7,-287.7C120.45,-279.73 124.99,-270.1 129.16,-261.26"/>
<polygon fill="black" stroke="black" points="132.38,-262.64 133.48,-252.1 126.05,-259.66 132.38,-262.64"/>
</g>
</g>
</svg>
